<svg version="1.1" id="Layer_1" xmlns="http://www.w3.org/2000/svg" xmlns:xlink="http://www.w3.org/1999/xlink" x="0px" y="0px"
	 width="100%" viewBox="346.7 182.7 591.8 591.8" enable-background="new 346.7 182.7 591.8 591.8" xml:space="preserve">
<path fill="#FEFEFE" opacity="1.000000" stroke="none" d="M565.690552,413.202026 
	C565.690552,413.202026 565.621887,413.313690 565.706238,414.036621 
	C567.467651,417.692535 569.229065,421.348419 571.027954,425.718964 
	C572.368164,428.480194 573.708374,431.241394 575.102844,434.720673 
	C575.387390,435.321594 575.675903,435.920654 575.955750,436.523743 
	C584.261963,454.422028 592.567383,472.320709 600.933533,490.940125 
	C605.324890,500.627594 609.645203,510.348053 614.124756,519.994629 
	C620.341858,533.382690 626.678528,546.715271 633.016052,560.800293 
	C640.690552,577.530884 648.365051,594.261414 656.053650,611.576416 
	C656.375610,612.037964 656.697632,612.499573 656.998657,612.986267 
	C656.998657,612.986267 657.031677,612.986206 657.092224,613.718933 
	C666.545593,634.374146 676.062073,655.001038 685.378235,675.717896 
	C686.648132,678.541870 688.352417,679.119385 691.116211,679.098694 
	C707.073853,678.979065 723.032654,679.008850 738.991028,678.965942 
	C740.399780,678.962158 741.808228,678.799316 744.144409,678.651794 
	C736.262207,662.011719 728.672241,645.988403 721.038635,629.222595 
	C717.763489,622.449646 714.398193,615.718567 711.234985,608.893738 
	C706.781067,599.284119 702.476807,589.605042 698.068420,579.206970 
	C696.804260,576.520813 695.532959,573.838013 694.276978,571.148010 
	C684.580933,550.381042 674.887817,529.612671 665.135315,508.891785 
	C665.135315,508.891785 665.208252,508.892517 665.176575,508.414978 
	C665.176575,508.414978 664.900940,508.023773 664.852844,507.305298 
	C663.021423,503.829315 661.005554,500.436615 659.391602,496.862457 
	C653.397339,483.588379 647.611877,470.219421 641.527771,456.987366 
	C640.760681,455.319031 638.684875,454.252411 637.160461,452.163055 
	C636.928467,450.021271 637.199768,447.649078 636.349121,445.790436 
	C634.997253,442.836456 632.486084,440.402039 631.205139,437.429077 
	C629.076233,432.488098 627.904114,427.125671 625.675964,422.238434 
	C618.615540,406.752411 611.252930,391.404114 603.952087,375.267792 
	C589.156677,343.250671 574.361267,311.233521 559.013794,278.021637 
	C550.183044,297.242432 541.992920,315.068726 533.205322,333.271301 
	C532.777649,334.346069 532.393372,335.440552 531.915710,336.492615 
	C525.019714,351.680145 518.111206,366.861969 510.720917,382.539368 
	C505.879242,393.040649 501.037537,403.541931 495.711792,414.554047 
	C490.432770,426.016876 485.153748,437.479675 479.248169,449.264038 
	C473.895630,461.195068 468.543060,473.126099 462.751404,485.612427 
	C461.552490,488.164368 460.327362,490.704376 459.158997,493.270172 
	C452.082123,508.810822 445.018188,524.357300 437.411346,540.342834 
	C416.195618,586.336426 394.979889,632.330017 373.594482,678.691406 
	C374.974701,678.860107 375.595917,679.001831 376.217163,679.002197 
	C393.368164,679.013306 410.520203,678.913086 427.669189,679.098450 
	C430.758820,679.131836 431.554962,677.484619 432.567230,675.288879 
	C442.523376,653.692688 452.599854,632.151733 462.503448,610.531616 
	C467.131165,600.429077 471.455292,590.187500 476.120270,579.314148 
	C476.896271,577.593262 477.672302,575.872375 479.052826,573.784790 
	C479.778564,571.555298 480.504303,569.325867 481.857025,566.793762 
	C482.949829,564.803284 484.158142,562.866638 485.115265,560.812866 
	C488.958252,552.566711 492.752838,544.297485 496.507935,536.010803 
	C499.369476,529.696045 502.144409,523.341980 505.404938,516.448608 
	C506.861572,512.987427 508.237701,509.489655 509.790863,506.072357 
	C513.548706,497.804169 517.389160,489.573456 521.725403,480.862976 
	C527.457947,468.231995 533.190491,455.601013 539.429749,442.505188 
	C545.647034,428.724121 551.864319,414.943054 558.780396,401.019043 
	C560.239197,403.347168 561.697998,405.675323 563.196350,408.662476 
	C563.755615,409.602417 564.314880,410.542389 564.783569,411.777832 
	C564.783569,411.777832 565.001282,411.997131 564.994934,412.561310 
	C565.248901,412.812592 565.502869,413.063904 565.690552,413.202026 
M847.500000,678.999939 
	C868.584961,678.999939 889.669983,678.999939 911.602173,678.999939 
	C904.453369,663.521973 897.638855,648.767761 890.724182,633.796631 
	C889.024597,633.796631 887.373047,633.797119 885.721436,633.796509 
	C865.232849,633.788574 844.743958,633.716797 824.256165,633.843384 
	C821.285217,633.861694 819.921265,632.859436 818.728271,630.188599 
	C812.018433,615.166992 805.100952,600.238037 798.233826,585.286804 
	C775.944336,536.757874 753.627502,488.241547 731.404907,439.682068 
	C730.276367,437.216125 729.022461,436.242493 726.206787,436.274139 
	C712.883057,436.423889 699.556274,436.304626 686.230591,436.284027 
	C682.658691,436.278503 679.086731,436.283173 675.001282,436.283173 
	C675.973877,438.636505 676.491455,440.017059 677.104553,441.353760 
	C712.897827,519.398438 748.711670,597.433777 784.446045,675.505432 
	C785.654480,678.145752 787.084412,679.114868 790.031616,679.091736 
	C808.853516,678.943481 827.677002,679.006470 847.500000,678.999939 
M550.609558,562.004517 
	C547.153381,564.228638 543.102722,565.887207 540.349915,568.780518 
	C531.264587,578.329468 531.201172,592.814392 539.658020,602.930176 
	C547.718262,612.571472 561.738953,614.754700 572.632385,608.064758 
	C583.252197,601.543030 587.634888,587.613098 582.667542,576.169556 
	C577.255249,563.700989 564.895569,558.021179 550.609558,562.004517 
" />
<path fill="#07172B" opacity="1.000000" stroke="none" d="
M847.000000,678.999939 
	C827.677002,679.006470 808.853516,678.943481 790.031616,679.091736 
	C787.084412,679.114868 785.654480,678.145752 784.446045,675.505432 
	C748.711670,597.433777 712.897827,519.398438 677.104553,441.353760 
	C676.491455,440.017059 675.973877,438.636505 675.001282,436.283173 
	C679.086731,436.283173 682.658691,436.278503 686.230591,436.284027 
	C699.556274,436.304626 712.883057,436.423889 726.206787,436.274139 
	C729.022461,436.242493 730.276367,437.216125 731.404907,439.682068 
	C753.627502,488.241547 775.944336,536.757874 798.233826,585.286804 
	C805.100952,600.238037 812.018433,615.166992 818.728271,630.188599 
	C819.921265,632.859436 821.285217,633.861694 824.256165,633.843384 
	C844.743958,633.716797 865.232849,633.788574 885.721436,633.796509 
	C887.373047,633.797119 889.024597,633.796631 890.724182,633.796631 
	C897.638855,648.767761 904.453369,663.521973 911.602173,678.999939 
	C889.669983,678.999939 868.584961,678.999939 847.000000,678.999939 
z" />
<path fill="#0451FD" opacity="1.000000" stroke="none" d="
M475.916992,580.008972 
	C471.455292,590.187500 467.131165,600.429077 462.503448,610.531616 
	C452.599854,632.151733 442.523376,653.692688 432.567230,675.288879 
	C431.554962,677.484619 430.758820,679.131836 427.669189,679.098450 
	C410.520203,678.913086 393.368164,679.013306 376.217163,679.002197 
	C375.595917,679.001831 374.974701,678.860107 373.594482,678.691406 
	C394.979889,632.330017 416.195618,586.336426 437.822083,540.452637 
	C440.290283,543.368591 441.799408,547.446716 444.554565,548.634521 
	C447.494598,549.901917 452.022125,549.359192 455.128387,547.973816 
	C461.334351,545.206116 464.896606,545.832520 469.789612,550.988281 
	C473.016571,554.388611 477.208954,556.872742 481.746796,560.365662 
	C481.649414,561.633911 481.439697,564.365173 481.230011,567.096375 
	C480.504303,569.325867 479.778564,571.555298 478.379822,573.956116 
	C475.609833,575.631348 472.847260,576.932739 475.916992,580.008972 
z" />
<path fill="#058BFE" opacity="1.000000" stroke="none" d="
M604.007202,376.002563 
	C611.252930,391.404114 618.615540,406.752411 625.675964,422.238434 
	C627.904114,427.125671 629.076233,432.488098 631.205139,437.429077 
	C632.486084,440.402039 634.997253,442.836456 636.349121,445.790436 
	C637.199768,447.649078 636.928467,450.021271 636.810303,452.615417 
	C634.893066,454.364044 633.325928,455.660339 631.758850,456.956665 
	C630.473694,455.067078 629.248596,453.132782 627.884521,451.302002 
	C626.777283,449.815857 625.650452,448.283661 624.262512,447.084106 
	C622.821411,445.838654 621.016724,445.024780 619.440125,443.923279 
	C615.131042,440.912628 611.241577,436.736053 606.472412,435.095001 
	C600.748169,433.125336 597.376526,428.854248 593.288391,425.282806 
	C589.564636,422.029694 586.877258,422.260986 583.794983,426.108521 
	C581.371338,429.133881 577.999329,431.399506 575.048645,434.002594 
	C573.708374,431.241394 572.368164,428.480194 571.292725,425.152649 
	C572.230469,422.178741 574.204895,418.766113 573.291626,417.583527 
	C571.648071,415.455200 568.273376,414.663666 565.621887,413.313660 
	C565.621887,413.313690 565.690552,413.202026 565.714355,412.982819 
	C565.492554,412.508118 565.246948,412.252625 565.001282,411.997131 
	C565.001282,411.997131 564.783569,411.777832 564.855164,411.245117 
	C564.336731,409.809448 563.746765,408.906464 563.156738,408.003479 
	C561.697998,405.675323 560.239197,403.347168 558.275757,400.774109 
	C553.790222,396.990631 550.091431,393.047546 545.752625,390.022339 
	C540.990051,386.701660 535.735962,384.021118 530.480286,381.513794 
	C528.980347,380.798126 526.368408,381.031738 524.885254,381.894287 
	C517.190186,386.369507 517.259949,386.489502 511.205688,382.045135 
	C518.111206,366.861969 525.019714,351.680145 531.915710,336.492615 
	C532.393372,335.440552 532.777649,334.346069 533.816223,333.293274 
	C534.841675,334.031219 535.550781,334.718658 535.623230,335.467682 
	C536.115845,340.561218 538.509583,342.018066 543.384399,340.239716 
	C544.499451,339.832947 547.401978,340.967957 547.505188,341.679962 
	C548.297607,347.143982 552.915649,346.594086 556.400391,348.087006 
	C559.080627,349.235168 561.510803,351.114594 563.792358,352.985657 
	C564.992004,353.969482 565.375305,355.945740 566.572021,356.936646 
	C572.457214,361.809875 578.717163,366.251343 584.398743,371.343018 
	C588.594910,375.103516 592.083069,379.649841 595.936951,383.799408 
	C596.966187,384.907684 598.179749,385.844849 599.308716,386.860596 
	C599.872131,385.492126 600.618103,384.167419 600.958557,382.745575 
	C601.548889,380.280945 599.558716,376.718445 604.007202,376.002563 
z" />
<path fill="#0572FD" opacity="1.000000" stroke="none" d="
M665.193787,508.844727 
	C674.887817,529.612671 684.580933,550.381042 694.276978,571.148010 
	C695.532959,573.838013 696.804260,576.520813 697.773926,579.794189 
	C694.920288,580.652893 691.295227,582.134216 689.989014,580.983459 
	C684.726318,576.346741 679.653015,571.283081 675.518372,565.638245 
	C671.456726,560.093018 666.392090,556.446594 660.269958,553.960571 
	C658.828064,553.375122 656.755310,552.844177 655.549805,553.445312 
	C651.238953,555.594849 647.772339,554.542053 644.163086,551.875916 
	C641.864319,550.177795 639.555542,550.611450 639.071167,553.864380 
	C638.521912,557.552795 637.168335,560.129761 632.963928,560.071594 
	C626.678528,546.715271 620.341858,533.382690 614.124756,519.994629 
	C609.645203,510.348053 605.324890,500.627594 601.116699,490.281128 
	C605.783875,486.948395 610.165100,485.222839 615.582458,487.762787 
	C618.267944,489.021973 621.723022,488.634033 624.827820,489.008850 
	C625.638123,489.106659 626.613464,489.021118 627.219421,489.442261 
	C632.735474,493.275513 638.231201,497.141663 643.642578,501.120972 
	C648.015869,504.336914 652.109009,507.955688 656.616760,510.960175 
	C660.369202,513.461243 663.856445,512.343689 665.193787,508.844727 
z" />
<path fill="#055CFD" opacity="1.000000" stroke="none" d="
M721.082214,629.965027 
	C728.672241,645.988403 736.262207,662.011719 744.144409,678.651794 
	C741.808228,678.799316 740.399780,678.962158 738.991028,678.965942 
	C723.032654,679.008850 707.073853,678.979065 691.116211,679.098694 
	C688.352417,679.119385 686.648132,678.541870 685.378235,675.717896 
	C676.062073,655.001038 666.545593,634.374146 657.414429,613.394409 
	C661.339111,615.156677 664.047302,615.341248 665.563843,610.429321 
	C666.006958,608.994019 668.495422,607.054626 669.800171,607.225586 
	C674.420593,607.831055 679.255737,608.558655 683.424988,610.497070 
	C693.616272,615.235474 701.338135,623.365784 709.366150,630.992126 
	C709.599243,631.213623 709.668091,631.628296 709.917725,631.808899 
	C711.744934,633.130676 713.674194,635.561096 715.426819,635.445923 
	C718.112122,635.269470 721.128479,633.769653 721.082214,629.965027 
z" />
<path fill="#057FFE" opacity="1.000000" stroke="none" d="
M665.164551,508.868256 
	C663.856445,512.343689 660.369202,513.461243 656.616760,510.960175 
	C652.109009,507.955688 648.015869,504.336914 643.642578,501.120972 
	C638.231201,497.141663 632.735474,493.275513 627.219421,489.442261 
	C626.613464,489.021118 625.638123,489.106659 624.827820,489.008850 
	C621.723022,488.634033 618.267944,489.021973 615.582458,487.762787 
	C610.165100,485.222839 605.783875,486.948395 601.086365,489.920715 
	C592.567383,472.320709 584.261963,454.422028 575.955750,436.523743 
	C575.675903,435.920654 575.387390,435.321594 575.075745,434.361633 
	C577.999329,431.399506 581.371338,429.133881 583.794983,426.108521 
	C586.877258,422.260986 589.564636,422.029694 593.288391,425.282806 
	C597.376526,428.854248 600.748169,433.125336 606.472412,435.095001 
	C611.241577,436.736053 615.131042,440.912628 619.440125,443.923279 
	C621.016724,445.024780 622.821411,445.838654 624.262512,447.084106 
	C625.650452,448.283661 626.777283,449.815857 627.884521,451.302002 
	C629.248596,453.132782 630.473694,455.067078 631.758850,456.956665 
	C633.325928,455.660339 634.893066,454.364044 636.837830,452.987366 
	C638.684875,454.252411 640.760681,455.319031 641.527771,456.987366 
	C647.611877,470.219421 653.397339,483.588379 659.391602,496.862457 
	C661.005554,500.436615 663.021423,503.829315 664.727966,507.779358 
	C664.804810,508.466431 665.006531,508.679474 665.208252,508.892517 
	C665.208252,508.892517 665.135315,508.891785 665.164551,508.868256 
z" />
<path fill="#0466FD" opacity="1.000000" stroke="none" d="
M721.060425,629.593811 
	C721.128479,633.769653 718.112122,635.269470 715.426819,635.445923 
	C713.674194,635.561096 711.744934,633.130676 709.917725,631.808899 
	C709.668091,631.628296 709.599243,631.213623 709.366150,630.992126 
	C701.338135,623.365784 693.616272,615.235474 683.424988,610.497070 
	C679.255737,608.558655 674.420593,607.831055 669.800171,607.225586 
	C668.495422,607.054626 666.006958,608.994019 665.563843,610.429321 
	C664.047302,615.341248 661.339111,615.156677 657.384155,613.028015 
	C657.031677,612.986206 656.998657,612.986267 656.979004,612.684082 
	C656.652710,611.918579 656.346130,611.455261 656.039551,610.992004 
	C648.365051,594.261414 640.690552,577.530884 632.989990,560.435913 
	C637.168335,560.129761 638.521912,557.552795 639.071167,553.864380 
	C639.555542,550.611450 641.864319,550.177795 644.163086,551.875916 
	C647.772339,554.542053 651.238953,555.594849 655.549805,553.445312 
	C656.755310,552.844177 658.828064,553.375122 660.269958,553.960571 
	C666.392090,556.446594 671.456726,560.093018 675.518372,565.638245 
	C679.653015,571.283081 684.726318,576.346741 689.989014,580.983459 
	C691.295227,582.134216 694.920288,580.652893 697.794067,580.168579 
	C702.476807,589.605042 706.781067,599.284119 711.234985,608.893738 
	C714.398193,615.718567 717.763489,622.449646 721.060425,629.593811 
z" />
<path fill="#0798FD" opacity="1.000000" stroke="none" d="
M603.979614,375.635193 
	C599.558716,376.718445 601.548889,380.280945 600.958557,382.745575 
	C600.618103,384.167419 599.872131,385.492126 599.308716,386.860596 
	C598.179749,385.844849 596.966187,384.907684 595.936951,383.799408 
	C592.083069,379.649841 588.594910,375.103516 584.398743,371.343018 
	C578.717163,366.251343 572.457214,361.809875 566.572021,356.936646 
	C565.375305,355.945740 564.992004,353.969482 563.792358,352.985657 
	C561.510803,351.114594 559.080627,349.235168 556.400391,348.087006 
	C552.915649,346.594086 548.297607,347.143982 547.505188,341.679962 
	C547.401978,340.967957 544.499451,339.832947 543.384399,340.239716 
	C538.509583,342.018066 536.115845,340.561218 535.623230,335.467682 
	C535.550781,334.718658 534.841675,334.031219 534.114990,333.105164 
	C541.992920,315.068726 550.183044,297.242432 559.013794,278.021637 
	C574.361267,311.233521 589.156677,343.250671 603.979614,375.635193 
z" />
<path fill="#055CFD" opacity="1.000000" stroke="none" d="
M481.543518,566.945068 
	C481.439697,564.365173 481.649414,561.633911 481.746796,560.365662 
	C477.208954,556.872742 473.016571,554.388611 469.789612,550.988281 
	C464.896606,545.832520 461.334351,545.206116 455.128387,547.973816 
	C452.022125,549.359192 447.494598,549.901917 444.554565,548.634521 
	C441.799408,547.446716 440.290283,543.368591 438.091370,540.232117 
	C445.018188,524.357300 452.082123,508.810822 459.158997,493.270172 
	C460.327362,490.704376 461.552490,488.164368 463.225281,485.649231 
	C463.919556,489.677002 464.139893,493.668030 464.412109,498.598297 
	C466.526154,496.765320 467.689911,495.607269 468.999908,494.649170 
	C472.501678,492.088165 473.811584,492.684326 475.100098,496.856323 
	C475.465057,498.037903 476.568359,499.336884 477.677612,499.886017 
	C483.995850,503.014008 490.506134,505.763702 496.748169,509.029846 
	C498.462128,509.926697 499.376160,512.257324 500.848419,513.740173 
	C502.072632,514.973145 503.577423,515.927612 504.957886,517.005432 
	C502.144409,523.341980 499.369476,529.696045 496.507935,536.010803 
	C492.752838,544.297485 488.958252,552.566711 485.115265,560.812866 
	C484.158142,562.866638 482.949829,564.803284 481.543518,566.945068 
z" />
<path fill="#057FFE" opacity="1.000000" stroke="none" d="
M510.963318,382.292236 
	C517.259949,386.489502 517.190186,386.369507 524.885254,381.894287 
	C526.368408,381.031738 528.980347,380.798126 530.480286,381.513794 
	C535.735962,384.021118 540.990051,386.701660 545.752625,390.022339 
	C550.091431,393.047546 553.790222,396.990631 557.926392,400.845581 
	C551.864319,414.943054 545.647034,428.724121 538.880127,442.581543 
	C536.520874,440.574463 534.938599,438.221375 532.854553,436.463196 
	C528.407043,432.711243 524.088745,428.496185 518.985596,425.921356 
	C514.175842,423.494598 509.843231,418.716461 503.216522,420.875671 
	C500.158661,421.872040 497.707520,420.532074 497.899475,416.508484 
	C497.937286,415.715607 496.794250,414.866394 496.195831,414.043182 
	C501.037537,403.541931 505.879242,393.040649 510.963318,382.292236 
z" />
<path fill="#0572FD" opacity="1.000000" stroke="none" d="
M495.953796,414.298615 
	C496.794250,414.866394 497.937286,415.715607 497.899475,416.508484 
	C497.707520,420.532074 500.158661,421.872040 503.216522,420.875671 
	C509.843231,418.716461 514.175842,423.494598 518.985596,425.921356 
	C524.088745,428.496185 528.407043,432.711243 532.854553,436.463196 
	C534.938599,438.221375 536.520874,440.574463 538.626770,442.813965 
	C533.190491,455.601013 527.457947,468.231995 521.253784,480.788300 
	C517.539185,477.856293 514.440002,474.810303 511.010284,472.198151 
	C507.970642,469.883026 504.656158,467.878967 501.288452,466.060852 
	C498.775452,464.704193 495.993347,463.839294 493.314117,462.799194 
	C490.832336,461.835724 488.373108,460.345490 485.822113,460.148834 
	C482.711334,459.909058 481.305237,458.776276 480.965607,455.812195 
	C480.701904,453.510834 480.245514,451.231567 479.874725,448.942474 
	C485.153748,437.479675 490.432770,426.016876 495.953796,414.298615 
z" />
<path fill="#0653FD" opacity="1.000000" stroke="none" d="
M550.988647,561.895264 
	C564.895569,558.021179 577.255249,563.700989 582.667542,576.169556 
	C587.634888,587.613098 583.252197,601.543030 572.632385,608.064758 
	C561.738953,614.754700 547.718262,612.571472 539.658020,602.930176 
	C531.201172,592.814392 531.264587,578.329468 540.349915,568.780518 
	C543.102722,565.887207 547.153381,564.228638 550.988647,561.895264 
z" />
<path fill="#0466FD" opacity="1.000000" stroke="none" d="
M479.561462,449.103271 
	C480.245514,451.231567 480.701904,453.510834 480.965607,455.812195 
	C481.305237,458.776276 482.711334,459.909058 485.822113,460.148834 
	C488.373108,460.345490 490.832336,461.835724 493.314117,462.799194 
	C495.993347,463.839294 498.775452,464.704193 501.288452,466.060852 
	C504.656158,467.878967 507.970642,469.883026 511.010284,472.198151 
	C514.440002,474.810303 517.539185,477.856293 520.989197,481.020630 
	C517.389160,489.573456 513.548706,497.804169 509.790863,506.072357 
	C508.237701,509.489655 506.861572,512.987427 505.181396,516.727051 
	C503.577423,515.927612 502.072632,514.973145 500.848419,513.740173 
	C499.376160,512.257324 498.462128,509.926697 496.748169,509.029846 
	C490.506134,505.763702 483.995850,503.014008 477.677612,499.886017 
	C476.568359,499.336884 475.465057,498.037903 475.100098,496.856323 
	C473.811584,492.684326 472.501678,492.088165 468.999908,494.649170 
	C467.689911,495.607269 466.526154,496.765320 464.412109,498.598297 
	C464.139893,493.668030 463.919556,489.677002 463.444855,485.371582 
	C468.543060,473.126099 473.895630,461.195068 479.561462,449.103271 
z" />
<path fill="#057FFE" opacity="1.000000" stroke="none" d="
M565.664062,413.675140 
	C568.273376,414.663666 571.648071,415.455200 573.291626,417.583527 
	C574.204895,418.766113 572.230469,422.178741 571.273987,424.795319 
	C569.229065,421.348419 567.467651,417.692535 565.664062,413.675140 
z" />
<path fill="#055CFD" opacity="1.000000" stroke="none" d="
M476.018616,579.661560 
	C472.847260,576.932739 475.609833,575.631348 478.077576,574.139465 
	C477.672302,575.872375 476.896271,577.593262 476.018616,579.661560 
z" />
<path fill="#057FFE" opacity="1.000000" stroke="none" d="
M563.176514,408.332977 
	C563.746765,408.906464 564.336731,409.809448 564.900452,411.097412 
	C564.314880,410.542389 563.755615,409.602417 563.176514,408.332977 
z" />
<path fill="#055CFD" opacity="1.000000" stroke="none" d="
M656.046631,611.284180 
	C656.346130,611.455261 656.652710,611.918579 656.989441,612.671509 
	C656.697632,612.499573 656.375610,612.037964 656.046631,611.284180 
z" />
<path fill="#057FFE" opacity="1.000000" stroke="none" d="
M564.998108,412.279236 
	C565.246948,412.252625 565.492554,412.508118 565.747559,413.039398 
	C565.502869,413.063904 565.248901,412.812592 564.998108,412.279236 
z" />
<path fill="#0572FD" opacity="1.000000" stroke="none" d="
M665.192383,508.653748 
	C665.006531,508.679474 664.804810,508.466431 664.752014,508.138580 
	C664.900940,508.023773 665.176575,508.414978 665.192383,508.653748 
z" />
</svg>