<svg version="1.1" id="Layer_1" xmlns="http://www.w3.org/2000/svg" xmlns:xlink="http://www.w3.org/1999/xlink" x="0px" y="0px"
	 width="100%" viewBox="0 0 1254 1254" enable-background="new 0 0 1254 1254" xml:space="preserve">
<path fill="#FEFEFE" opacity="1.000000" stroke="none" 
	d="
M605.000000,1255.000000 
	C403.333344,1255.000000 202.166672,1255.000000 1.000000,1255.000000 
	C1.000000,837.000000 1.000000,419.000000 1.000000,1.000000 
	C419.000000,1.000000 837.000000,1.000000 1255.000000,1.000000 
	C1255.000000,419.000000 1255.000000,837.000000 1255.000000,1255.000000 
	C1038.500000,1255.000000 822.000000,1255.000000 605.000000,1255.000000 
M565.690552,413.202026 
	C565.690552,413.202026 565.621887,413.313690 565.706238,414.036621 
	C567.467651,417.692535 569.229065,421.348419 571.027954,425.718964 
	C572.368164,428.480194 573.708374,431.241394 575.102844,434.720673 
	C575.387390,435.321594 575.675903,435.920654 575.955750,436.523743 
	C584.261963,454.422028 592.567383,472.320709 600.933533,490.940125 
	C605.324890,500.627594 609.645203,510.348053 614.124756,519.994629 
	C620.341858,533.382690 626.678528,546.715271 633.016052,560.800293 
	C640.690552,577.530884 648.365051,594.261414 656.053650,611.576416 
	C656.375610,612.037964 656.697632,612.499573 656.998657,612.986267 
	C656.998657,612.986267 657.031677,612.986206 657.092224,613.718933 
	C666.545593,634.374146 676.062073,655.001038 685.378235,675.717896 
	C686.648132,678.541870 688.352417,679.119385 691.116211,679.098694 
	C707.073853,678.979065 723.032654,679.008850 738.991028,678.965942 
	C740.399780,678.962158 741.808228,678.799316 744.144409,678.651794 
	C736.262207,662.011719 728.672241,645.988403 721.038635,629.222595 
	C717.763489,622.449646 714.398193,615.718567 711.234985,608.893738 
	C706.781067,599.284119 702.476807,589.605042 698.068420,579.206970 
	C696.804260,576.520813 695.532959,573.838013 694.276978,571.148010 
	C684.580933,550.381042 674.887817,529.612671 665.135315,508.891785 
	C665.135315,508.891785 665.208252,508.892517 665.176575,508.414978 
	C665.176575,508.414978 664.900940,508.023773 664.852844,507.305298 
	C663.021423,503.829315 661.005554,500.436615 659.391602,496.862457 
	C653.397339,483.588379 647.611877,470.219421 641.527771,456.987366 
	C640.760681,455.319031 638.684875,454.252411 637.160461,452.163055 
	C636.928467,450.021271 637.199768,447.649078 636.349121,445.790436 
	C634.997253,442.836456 632.486084,440.402039 631.205139,437.429077 
	C629.076233,432.488098 627.904114,427.125671 625.675964,422.238434 
	C618.615540,406.752411 611.252930,391.404114 603.952087,375.267792 
	C589.156677,343.250671 574.361267,311.233521 559.013794,278.021637 
	C550.183044,297.242432 541.992920,315.068726 533.205322,333.271301 
	C532.777649,334.346069 532.393372,335.440552 531.915710,336.492615 
	C525.019714,351.680145 518.111206,366.861969 510.720917,382.539368 
	C505.879242,393.040649 501.037537,403.541931 495.711792,414.554047 
	C490.432770,426.016876 485.153748,437.479675 479.248169,449.264038 
	C473.895630,461.195068 468.543060,473.126099 462.751404,485.612427 
	C461.552490,488.164368 460.327362,490.704376 459.158997,493.270172 
	C452.082123,508.810822 445.018188,524.357300 437.411346,540.342834 
	C416.195618,586.336426 394.979889,632.330017 373.594482,678.691406 
	C374.974701,678.860107 375.595917,679.001831 376.217163,679.002197 
	C393.368164,679.013306 410.520203,678.913086 427.669189,679.098450 
	C430.758820,679.131836 431.554962,677.484619 432.567230,675.288879 
	C442.523376,653.692688 452.599854,632.151733 462.503448,610.531616 
	C467.131165,600.429077 471.455292,590.187500 476.120270,579.314148 
	C476.896271,577.593262 477.672302,575.872375 479.052826,573.784790 
	C479.778564,571.555298 480.504303,569.325867 481.857025,566.793762 
	C482.949829,564.803284 484.158142,562.866638 485.115265,560.812866 
	C488.958252,552.566711 492.752838,544.297485 496.507935,536.010803 
	C499.369476,529.696045 502.144409,523.341980 505.404938,516.448608 
	C506.861572,512.987427 508.237701,509.489655 509.790863,506.072357 
	C513.548706,497.804169 517.389160,489.573456 521.725403,480.862976 
	C527.457947,468.231995 533.190491,455.601013 539.429749,442.505188 
	C545.647034,428.724121 551.864319,414.943054 558.780396,401.019043 
	C560.239197,403.347168 561.697998,405.675323 563.196350,408.662476 
	C563.755615,409.602417 564.314880,410.542389 564.783569,411.777832 
	C564.783569,411.777832 565.001282,411.997131 564.994934,412.561310 
	C565.248901,412.812592 565.502869,413.063904 565.690552,413.202026 
M478.335052,808.103577 
	C478.335052,789.909973 478.335052,771.716309 478.335052,753.550598 
	C473.181915,753.550598 468.593231,753.550598 463.310455,753.905029 
	C463.241516,757.059265 463.115875,760.213501 463.113434,763.367798 
	C463.102631,777.349426 463.222992,791.331848 463.099426,805.312256 
	C463.035431,812.557190 459.830292,816.801392 453.470886,816.964844 
	C438.172516,817.357849 422.855927,817.391113 407.554138,817.130737 
	C401.440369,817.026733 398.334595,813.573730 397.415314,807.453125 
	C397.121033,805.493835 397.171143,803.473694 397.168976,801.481262 
	C397.151428,785.542664 397.159149,769.604004 397.159149,753.456299 
	C391.828247,753.456299 386.963470,753.456299 381.950562,753.456299 
	C381.950562,772.273621 381.648743,790.746216 382.055298,809.203125 
	C382.332153,821.771851 390.360321,830.181824 403.000092,830.998657 
	C414.769623,831.759216 426.614838,831.411194 438.426910,831.427246 
	C444.910889,831.436096 451.443420,831.642761 457.869080,830.960266 
	C470.180359,829.652527 477.672363,821.207275 478.335052,808.103577 
M800.416809,754.982056 
	C799.922607,755.268677 799.428345,755.555298 798.219788,755.884338 
	C790.858093,759.185608 786.444458,765.109985 786.029236,772.875793 
	C785.364075,785.316467 785.117188,797.851379 785.869080,810.275269 
	C786.596802,822.299988 794.861633,830.490356 807.004028,830.923157 
	C825.794983,831.592957 844.647644,831.622070 863.435669,830.908630 
	C876.311523,830.419678 884.384949,821.769165 884.954712,808.985779 
	C885.458618,797.682800 885.341125,786.322327 884.857361,775.014709 
	C884.486023,766.333984 880.682495,759.351807 871.612793,755.549561 
	C871.075073,755.404358 870.537292,755.259155 869.574036,754.807251 
	C869.400146,754.825500 869.226318,754.843811 868.482422,754.390198 
	C847.795532,754.167114 827.108643,753.943542 806.421631,753.730713 
	C806.275574,753.729187 806.127869,753.875488 805.330627,753.835754 
	C804.501587,754.072388 803.672546,754.309021 802.344727,754.484619 
	C802.222900,754.599609 802.101074,754.714600 801.448792,754.762695 
	C801.299316,754.859680 801.149780,754.956604 800.416809,754.982056 
M847.500000,678.999939 
	C868.584961,678.999939 889.669983,678.999939 911.602173,678.999939 
	C904.453369,663.521973 897.638855,648.767761 890.724182,633.796631 
	C889.024597,633.796631 887.373047,633.797119 885.721436,633.796509 
	C865.232849,633.788574 844.743958,633.716797 824.256165,633.843384 
	C821.285217,633.861694 819.921265,632.859436 818.728271,630.188599 
	C812.018433,615.166992 805.100952,600.238037 798.233826,585.286804 
	C775.944336,536.757874 753.627502,488.241547 731.404907,439.682068 
	C730.276367,437.216125 729.022461,436.242493 726.206787,436.274139 
	C712.883057,436.423889 699.556274,436.304626 686.230591,436.284027 
	C682.658691,436.278503 679.086731,436.283173 675.001282,436.283173 
	C675.973877,438.636505 676.491455,440.017059 677.104553,441.353760 
	C712.897827,519.398438 748.711670,597.433777 784.446045,675.505432 
	C785.654480,678.145752 787.084412,679.114868 790.031616,679.091736 
	C808.853516,678.943481 827.677002,679.006470 847.500000,678.999939 
M628.806274,831.411804 
	C632.894470,831.411804 636.982666,831.411804 641.833679,831.411804 
	C634.499084,822.682129 627.657349,814.539001 620.639160,806.185852 
	C633.253967,802.497375 638.010071,798.460938 639.723022,789.557861 
	C640.406555,786.005188 640.302429,782.268127 640.275024,778.617065 
	C640.145508,761.368958 632.062256,753.235901 614.848328,753.152893 
	C595.201843,753.058105 575.554688,753.114685 555.907776,753.106140 
	C552.281738,753.104553 548.655762,753.105957 544.755737,753.105957 
	C544.755737,779.412720 544.755737,805.283447 544.755737,831.195984 
	C549.805542,831.195984 554.540955,831.195984 559.843933,831.195984 
	C559.843933,822.761780 559.843933,814.691956 559.843933,806.320374 
	C573.403137,806.320374 586.389709,806.231750 599.372009,806.429077 
	C601.054382,806.454590 603.164429,807.556641 604.308289,808.843018 
	C609.834656,815.057678 615.223816,821.406433 620.392761,827.920898 
	C622.445496,830.508057 624.571655,832.031982 628.806274,831.411804 
M949.995605,773.500244 
	C949.995605,792.631836 949.995605,811.763489 949.995605,831.162720 
	C955.192078,831.162720 959.949402,831.162720 965.267212,831.162720 
	C965.267212,811.225830 965.267212,791.545593 965.267212,770.925476 
	C968.461487,773.883606 970.919067,776.088135 973.298157,778.374268 
	C990.597839,794.998047 1007.871216,811.649353 1025.192261,828.250854 
	C1026.479858,829.485046 1028.021606,831.221252 1029.534424,831.317078 
	C1035.264771,831.679871 1041.032104,831.462952 1046.673096,831.462952 
	C1046.673096,805.008850 1046.673096,779.257202 1046.673096,753.479370 
	C1041.617065,753.479370 1036.884155,753.479370 1031.560913,753.479370 
	C1031.560913,773.624512 1031.560913,793.427368 1031.560913,813.821045 
	C1011.054626,794.274841 991.175842,775.309692 971.260132,756.383301 
	C969.969727,755.157043 968.449158,753.410950 966.942444,753.310852 
	C961.388062,752.942017 955.794434,753.164307 949.994263,753.164307 
	C949.994263,760.184204 949.994263,766.342407 949.995605,773.500244 
M228.108093,809.520691 
	C223.893768,816.587402 219.679443,823.654114 215.028732,831.452515 
	C219.986115,831.452515 224.124771,831.241638 228.229950,831.521545 
	C231.313248,831.731873 232.873596,830.610046 234.428848,827.929932 
	C245.947311,808.080505 257.682983,788.357117 269.643951,768.096863 
	C270.676575,769.825989 271.513031,771.204712 272.328735,772.595703 
	C283.112457,790.984314 293.868195,809.389404 304.723724,827.735535 
	C305.571594,829.168579 307.035461,831.131897 308.344513,831.238770 
	C313.379700,831.649780 318.468414,831.405334 324.204010,831.405334 
	C310.204926,807.929199 296.231415,785.604919 283.528961,762.579468 
	C279.212402,754.754883 274.437592,751.511230 266.150116,753.225586 
	C264.028015,753.664551 261.303009,754.730347 260.278442,756.387939 
	C249.520737,773.792053 239.052429,791.375061 228.108093,809.520691 
M550.609558,562.004517 
	C547.153381,564.228638 543.102722,565.887207 540.349915,568.780518 
	C531.264587,578.329468 531.201172,592.814392 539.658020,602.930176 
	C547.718262,612.571472 561.738953,614.754700 572.632385,608.064758 
	C583.252197,601.543030 587.634888,587.613098 582.667542,576.169556 
	C577.255249,563.700989 564.895569,558.021179 550.609558,562.004517 
M719.990784,798.500000 
	C719.990784,783.564331 719.990784,768.628601 719.990784,753.418213 
	C714.692810,753.418213 709.941772,753.418213 704.943359,753.418213 
	C704.943359,779.396057 704.943359,805.256531 704.943359,831.161255 
	C710.053528,831.161255 714.819580,831.161255 719.989929,831.161255 
	C719.989929,820.426331 719.989929,809.963196 719.990784,798.500000 
M661.209229,881.678345 
	C661.209229,892.750122 661.209229,903.821960 661.209229,915.138550 
	C669.643372,915.138550 677.449402,915.412903 685.223816,915.036133 
	C689.920715,914.808472 694.526855,912.692810 695.291687,907.632935 
	C695.803955,904.243835 694.344421,900.434937 693.232300,896.986389 
	C692.828125,895.732849 690.873413,894.979370 689.365295,893.792419 
	C693.877380,890.632141 695.641907,886.161743 693.362671,881.896484 
	C691.804138,878.979919 687.996765,875.841248 684.874451,875.465881 
	C677.212158,874.544678 669.364563,875.164734 661.210144,875.164734 
	C661.210144,877.115967 661.210144,878.926025 661.209229,881.678345 
M574.291443,881.604187 
	C569.300537,892.582458 564.309692,903.560791 559.257629,914.673645 
	C564.013306,916.125732 567.097595,915.413513 568.185669,910.450745 
	C569.002869,906.723511 571.159058,904.957031 575.304443,905.469910 
	C578.908325,905.915894 582.619019,905.845703 586.254333,905.595581 
	C589.993286,905.338318 592.138184,906.698914 593.058044,910.357178 
	C594.168396,914.772766 596.759155,916.683899 601.662964,914.543152 
	C596.062378,901.958984 590.541687,889.388245 584.790344,876.923950 
	C584.290405,875.840515 582.252197,874.866760 580.961121,874.906250 
	C579.479797,874.951538 577.774353,875.910889 576.651489,876.981934 
	C575.641846,877.945068 575.289001,879.596680 574.291443,881.604187 
M765.418091,915.190613 
	C771.070801,916.159058 776.643433,916.602356 781.845947,913.348938 
	C789.546326,908.533447 789.404297,898.533813 781.286316,894.536682 
	C777.774536,892.807617 773.730408,892.166870 769.939087,890.996277 
	C766.761414,890.015015 762.905945,889.312561 763.615173,884.798950 
	C764.265442,880.661560 767.949646,879.806458 771.324158,880.173096 
	C775.354248,880.610901 779.289307,881.922791 783.714111,882.961365 
	C784.325500,881.856018 785.169250,880.330505 786.178894,878.505127 
	C779.036438,874.227661 771.942078,872.980042 764.403564,875.669006 
	C759.571960,877.392456 756.754883,880.812500 756.749512,886.165955 
	C756.744202,891.541138 760.117004,894.250183 764.654724,895.816711 
	C768.103394,897.007324 771.873108,897.437256 775.112793,899.005493 
	C777.342285,900.084717 780.157593,902.330200 780.494995,904.413391 
	C781.076172,908.001526 777.477844,909.753235 774.498657,909.542847 
	C769.090576,909.161133 763.749268,907.834473 758.380066,906.902222 
	C758.361450,906.411133 758.342773,905.920105 758.324097,905.429077 
	C757.363037,906.894775 756.401978,908.360535 754.931274,910.603577 
	C758.436707,912.208191 761.520508,913.619751 765.418091,915.190613 
M867.499634,896.148010 
	C914.680481,896.148010 961.861389,896.148010 1009.042236,896.148010 
	C1008.009399,895.968628 1006.915405,896.290344 1005.850464,896.213074 
	C997.004700,895.571655 988.175171,894.543091 979.319763,894.234558 
	C964.691162,893.724915 950.047729,893.539612 935.409058,893.442993 
	C906.445251,893.251770 877.480408,893.191650 848.515991,893.189453 
	C847.251953,893.189392 845.987793,894.303589 844.723755,894.898682 
	C845.989746,895.319641 847.248718,896.077698 848.522766,896.104004 
	C854.512817,896.227905 860.506958,896.150879 867.499634,896.148010 
M406.447357,893.119934 
	C356.277008,893.487183 306.106659,893.854431 255.936295,894.221680 
	C255.938293,894.636536 255.940277,895.051331 255.942276,895.466187 
	C269.827393,895.466187 283.712830,895.406555 297.597565,895.477600 
	C335.922974,895.673767 374.248047,895.936584 412.573547,896.106445 
	C414.004669,896.112793 415.438873,895.424194 416.871613,895.059509 
	C416.775757,894.413635 416.679901,893.767761 416.584045,893.121887 
	C413.530121,893.121887 410.476166,893.121887 406.447357,893.119934 
M482.223114,884.529480 
	C482.223114,881.425293 482.223114,878.321045 482.223114,875.149658 
	C479.840515,875.149658 478.103241,875.149658 476.228088,875.149658 
	C476.228088,888.603088 476.228088,901.774536 476.228088,914.937012 
	C485.722565,914.937012 494.801331,914.937012 504.204254,914.937012 
	C504.083801,913.070618 503.983490,911.516541 503.848907,909.431152 
	C496.542938,909.431152 489.636749,909.431152 482.218781,909.431152 
	C482.218781,901.091858 482.218781,893.305603 482.223114,884.529480 
z"/>
<path fill="#07172B" opacity="1.000000" stroke="none" 
	d="
M847.000000,678.999939 
	C827.677002,679.006470 808.853516,678.943481 790.031616,679.091736 
	C787.084412,679.114868 785.654480,678.145752 784.446045,675.505432 
	C748.711670,597.433777 712.897827,519.398438 677.104553,441.353760 
	C676.491455,440.017059 675.973877,438.636505 675.001282,436.283173 
	C679.086731,436.283173 682.658691,436.278503 686.230591,436.284027 
	C699.556274,436.304626 712.883057,436.423889 726.206787,436.274139 
	C729.022461,436.242493 730.276367,437.216125 731.404907,439.682068 
	C753.627502,488.241547 775.944336,536.757874 798.233826,585.286804 
	C805.100952,600.238037 812.018433,615.166992 818.728271,630.188599 
	C819.921265,632.859436 821.285217,633.861694 824.256165,633.843384 
	C844.743958,633.716797 865.232849,633.788574 885.721436,633.796509 
	C887.373047,633.797119 889.024597,633.796631 890.724182,633.796631 
	C897.638855,648.767761 904.453369,663.521973 911.602173,678.999939 
	C889.669983,678.999939 868.584961,678.999939 847.000000,678.999939 
z"/>
<path fill="#0451FD" opacity="1.000000" stroke="none" 
	d="
M475.916992,580.008972 
	C471.455292,590.187500 467.131165,600.429077 462.503448,610.531616 
	C452.599854,632.151733 442.523376,653.692688 432.567230,675.288879 
	C431.554962,677.484619 430.758820,679.131836 427.669189,679.098450 
	C410.520203,678.913086 393.368164,679.013306 376.217163,679.002197 
	C375.595917,679.001831 374.974701,678.860107 373.594482,678.691406 
	C394.979889,632.330017 416.195618,586.336426 437.822083,540.452637 
	C440.290283,543.368591 441.799408,547.446716 444.554565,548.634521 
	C447.494598,549.901917 452.022125,549.359192 455.128387,547.973816 
	C461.334351,545.206116 464.896606,545.832520 469.789612,550.988281 
	C473.016571,554.388611 477.208954,556.872742 481.746796,560.365662 
	C481.649414,561.633911 481.439697,564.365173 481.230011,567.096375 
	C480.504303,569.325867 479.778564,571.555298 478.379822,573.956116 
	C475.609833,575.631348 472.847260,576.932739 475.916992,580.008972 
z"/>
<path fill="#058BFE" opacity="1.000000" stroke="none" 
	d="
M604.007202,376.002563 
	C611.252930,391.404114 618.615540,406.752411 625.675964,422.238434 
	C627.904114,427.125671 629.076233,432.488098 631.205139,437.429077 
	C632.486084,440.402039 634.997253,442.836456 636.349121,445.790436 
	C637.199768,447.649078 636.928467,450.021271 636.810303,452.615417 
	C634.893066,454.364044 633.325928,455.660339 631.758850,456.956665 
	C630.473694,455.067078 629.248596,453.132782 627.884521,451.302002 
	C626.777283,449.815857 625.650452,448.283661 624.262512,447.084106 
	C622.821411,445.838654 621.016724,445.024780 619.440125,443.923279 
	C615.131042,440.912628 611.241577,436.736053 606.472412,435.095001 
	C600.748169,433.125336 597.376526,428.854248 593.288391,425.282806 
	C589.564636,422.029694 586.877258,422.260986 583.794983,426.108521 
	C581.371338,429.133881 577.999329,431.399506 575.048645,434.002594 
	C573.708374,431.241394 572.368164,428.480194 571.292725,425.152649 
	C572.230469,422.178741 574.204895,418.766113 573.291626,417.583527 
	C571.648071,415.455200 568.273376,414.663666 565.621887,413.313660 
	C565.621887,413.313690 565.690552,413.202026 565.714355,412.982819 
	C565.492554,412.508118 565.246948,412.252625 565.001282,411.997131 
	C565.001282,411.997131 564.783569,411.777832 564.855164,411.245117 
	C564.336731,409.809448 563.746765,408.906464 563.156738,408.003479 
	C561.697998,405.675323 560.239197,403.347168 558.275757,400.774109 
	C553.790222,396.990631 550.091431,393.047546 545.752625,390.022339 
	C540.990051,386.701660 535.735962,384.021118 530.480286,381.513794 
	C528.980347,380.798126 526.368408,381.031738 524.885254,381.894287 
	C517.190186,386.369507 517.259949,386.489502 511.205688,382.045135 
	C518.111206,366.861969 525.019714,351.680145 531.915710,336.492615 
	C532.393372,335.440552 532.777649,334.346069 533.816223,333.293274 
	C534.841675,334.031219 535.550781,334.718658 535.623230,335.467682 
	C536.115845,340.561218 538.509583,342.018066 543.384399,340.239716 
	C544.499451,339.832947 547.401978,340.967957 547.505188,341.679962 
	C548.297607,347.143982 552.915649,346.594086 556.400391,348.087006 
	C559.080627,349.235168 561.510803,351.114594 563.792358,352.985657 
	C564.992004,353.969482 565.375305,355.945740 566.572021,356.936646 
	C572.457214,361.809875 578.717163,366.251343 584.398743,371.343018 
	C588.594910,375.103516 592.083069,379.649841 595.936951,383.799408 
	C596.966187,384.907684 598.179749,385.844849 599.308716,386.860596 
	C599.872131,385.492126 600.618103,384.167419 600.958557,382.745575 
	C601.548889,380.280945 599.558716,376.718445 604.007202,376.002563 
z"/>
<path fill="#0C1A2E" opacity="1.000000" stroke="none" 
	d="
M628.358765,831.415405 
	C624.571655,832.031982 622.445496,830.508057 620.392761,827.920898 
	C615.223816,821.406433 609.834656,815.057678 604.308289,808.843018 
	C603.164429,807.556641 601.054382,806.454590 599.372009,806.429077 
	C586.389709,806.231750 573.403137,806.320374 559.843933,806.320374 
	C559.843933,814.691956 559.843933,822.761780 559.843933,831.195984 
	C554.540955,831.195984 549.805542,831.195984 544.755737,831.195984 
	C544.755737,805.283447 544.755737,779.412720 544.755737,753.105957 
	C548.655762,753.105957 552.281738,753.104553 555.907776,753.106140 
	C575.554688,753.114685 595.201843,753.058105 614.848328,753.152893 
	C632.062256,753.235901 640.145508,761.368958 640.275024,778.617065 
	C640.302429,782.268127 640.406555,786.005188 639.723022,789.557861 
	C638.010071,798.460938 633.253967,802.497375 620.639160,806.185852 
	C627.657349,814.539001 634.499084,822.682129 641.833679,831.411804 
	C636.982666,831.411804 632.894470,831.411804 628.358765,831.415405 
M560.513977,794.361511 
	C561.129333,794.567871 561.744263,794.953186 562.360107,794.954590 
	C579.520447,794.994141 596.681091,795.024048 613.840942,794.930908 
	C614.895752,794.925171 615.945068,793.897461 617.660522,793.017151 
	C626.414307,790.810852 625.783752,784.161255 624.932251,774.924500 
	C624.443787,769.626526 620.621704,767.279480 613.382263,767.280273 
	C596.773010,767.282104 580.163757,767.380432 563.554688,767.474731 
	C562.312683,767.481750 561.072205,767.768677 560.116821,767.889404 
	C560.116821,776.744141 560.116821,785.177734 560.513977,794.361511 
z"/>
<path fill="#0B192D" opacity="1.000000" stroke="none" 
	d="
M802.843506,754.545654 
	C803.672546,754.309021 804.501587,754.072388 805.945923,754.198364 
	C807.367615,754.706299 808.173828,754.977356 808.980408,754.978455 
	C826.609863,755.002869 844.239258,755.002441 861.868713,754.991455 
	C864.263306,754.989990 866.657837,754.907227 869.052429,754.862122 
	C869.226318,754.843811 869.400146,754.825500 869.823730,755.246460 
	C870.720398,755.777100 871.367371,755.868408 872.014404,755.959717 
	C880.682495,759.351807 884.486023,766.333984 884.857361,775.014709 
	C885.341125,786.322327 885.458618,797.682800 884.954712,808.985779 
	C884.384949,821.769165 876.311523,830.419678 863.435669,830.908630 
	C844.647644,831.622070 825.794983,831.592957 807.004028,830.923157 
	C794.861633,830.490356 786.596802,822.299988 785.869080,810.275269 
	C785.117188,797.851379 785.364075,785.316467 786.029236,772.875793 
	C786.444458,765.109985 790.858093,759.185608 798.733521,756.110840 
	C799.831665,755.909485 800.415955,755.481567 801.000244,755.053589 
	C801.149780,754.956604 801.299316,754.859680 801.821289,754.979614 
	C802.410339,754.979553 802.626892,754.762573 802.843506,754.545654 
M803.030273,771.721008 
	C802.218445,775.045898 800.863037,778.345459 800.706360,781.700928 
	C800.365112,789.007812 800.598389,796.343567 800.663757,803.666931 
	C800.748413,813.151489 804.290466,817.157837 813.848572,817.333679 
	C828.322754,817.599854 842.810059,817.516541 857.285095,817.237854 
	C866.231628,817.065613 869.874878,813.111877 870.013123,804.145264 
	C870.131104,796.490540 870.098633,788.830444 869.964233,781.175720 
	C869.782532,770.821350 866.421448,767.427246 856.029602,767.353394 
	C842.214966,767.255188 828.390442,767.125366 814.588684,767.576721 
	C810.871643,767.698242 807.221802,769.875366 803.030273,771.721008 
z"/>
<path fill="#0A182B" opacity="1.000000" stroke="none" 
	d="
M949.994934,773.000366 
	C949.994263,766.342407 949.994263,760.184204 949.994263,753.164307 
	C955.794434,753.164307 961.388062,752.942017 966.942444,753.310852 
	C968.449158,753.410950 969.969727,755.157043 971.260132,756.383301 
	C991.175842,775.309692 1011.054626,794.274841 1031.560913,813.821045 
	C1031.560913,793.427368 1031.560913,773.624512 1031.560913,753.479370 
	C1036.884155,753.479370 1041.617065,753.479370 1046.673096,753.479370 
	C1046.673096,779.257202 1046.673096,805.008850 1046.673096,831.462952 
	C1041.032104,831.462952 1035.264771,831.679871 1029.534424,831.317078 
	C1028.021606,831.221252 1026.479858,829.485046 1025.192261,828.250854 
	C1007.871216,811.649353 990.597839,794.998047 973.298157,778.374268 
	C970.919067,776.088135 968.461487,773.883606 965.267212,770.925476 
	C965.267212,791.545593 965.267212,811.225830 965.267212,831.162720 
	C959.949402,831.162720 955.192078,831.162720 949.995605,831.162720 
	C949.995605,811.763489 949.995605,792.631836 949.994934,773.000366 
z"/>
<path fill="#0572FD" opacity="1.000000" stroke="none" 
	d="
M665.193787,508.844727 
	C674.887817,529.612671 684.580933,550.381042 694.276978,571.148010 
	C695.532959,573.838013 696.804260,576.520813 697.773926,579.794189 
	C694.920288,580.652893 691.295227,582.134216 689.989014,580.983459 
	C684.726318,576.346741 679.653015,571.283081 675.518372,565.638245 
	C671.456726,560.093018 666.392090,556.446594 660.269958,553.960571 
	C658.828064,553.375122 656.755310,552.844177 655.549805,553.445312 
	C651.238953,555.594849 647.772339,554.542053 644.163086,551.875916 
	C641.864319,550.177795 639.555542,550.611450 639.071167,553.864380 
	C638.521912,557.552795 637.168335,560.129761 632.963928,560.071594 
	C626.678528,546.715271 620.341858,533.382690 614.124756,519.994629 
	C609.645203,510.348053 605.324890,500.627594 601.116699,490.281128 
	C605.783875,486.948395 610.165100,485.222839 615.582458,487.762787 
	C618.267944,489.021973 621.723022,488.634033 624.827820,489.008850 
	C625.638123,489.106659 626.613464,489.021118 627.219421,489.442261 
	C632.735474,493.275513 638.231201,497.141663 643.642578,501.120972 
	C648.015869,504.336914 652.109009,507.955688 656.616760,510.960175 
	C660.369202,513.461243 663.856445,512.343689 665.193787,508.844727 
z"/>
<path fill="#055CFD" opacity="1.000000" stroke="none" 
	d="
M721.082214,629.965027 
	C728.672241,645.988403 736.262207,662.011719 744.144409,678.651794 
	C741.808228,678.799316 740.399780,678.962158 738.991028,678.965942 
	C723.032654,679.008850 707.073853,678.979065 691.116211,679.098694 
	C688.352417,679.119385 686.648132,678.541870 685.378235,675.717896 
	C676.062073,655.001038 666.545593,634.374146 657.414429,613.394409 
	C661.339111,615.156677 664.047302,615.341248 665.563843,610.429321 
	C666.006958,608.994019 668.495422,607.054626 669.800171,607.225586 
	C674.420593,607.831055 679.255737,608.558655 683.424988,610.497070 
	C693.616272,615.235474 701.338135,623.365784 709.366150,630.992126 
	C709.599243,631.213623 709.668091,631.628296 709.917725,631.808899 
	C711.744934,633.130676 713.674194,635.561096 715.426819,635.445923 
	C718.112122,635.269470 721.128479,633.769653 721.082214,629.965027 
z"/>
<path fill="#057FFE" opacity="1.000000" stroke="none" 
	d="
M665.164551,508.868256 
	C663.856445,512.343689 660.369202,513.461243 656.616760,510.960175 
	C652.109009,507.955688 648.015869,504.336914 643.642578,501.120972 
	C638.231201,497.141663 632.735474,493.275513 627.219421,489.442261 
	C626.613464,489.021118 625.638123,489.106659 624.827820,489.008850 
	C621.723022,488.634033 618.267944,489.021973 615.582458,487.762787 
	C610.165100,485.222839 605.783875,486.948395 601.086365,489.920715 
	C592.567383,472.320709 584.261963,454.422028 575.955750,436.523743 
	C575.675903,435.920654 575.387390,435.321594 575.075745,434.361633 
	C577.999329,431.399506 581.371338,429.133881 583.794983,426.108521 
	C586.877258,422.260986 589.564636,422.029694 593.288391,425.282806 
	C597.376526,428.854248 600.748169,433.125336 606.472412,435.095001 
	C611.241577,436.736053 615.131042,440.912628 619.440125,443.923279 
	C621.016724,445.024780 622.821411,445.838654 624.262512,447.084106 
	C625.650452,448.283661 626.777283,449.815857 627.884521,451.302002 
	C629.248596,453.132782 630.473694,455.067078 631.758850,456.956665 
	C633.325928,455.660339 634.893066,454.364044 636.837830,452.987366 
	C638.684875,454.252411 640.760681,455.319031 641.527771,456.987366 
	C647.611877,470.219421 653.397339,483.588379 659.391602,496.862457 
	C661.005554,500.436615 663.021423,503.829315 664.727966,507.779358 
	C664.804810,508.466431 665.006531,508.679474 665.208252,508.892517 
	C665.208252,508.892517 665.135315,508.891785 665.164551,508.868256 
z"/>
<path fill="#0466FD" opacity="1.000000" stroke="none" 
	d="
M721.060425,629.593811 
	C721.128479,633.769653 718.112122,635.269470 715.426819,635.445923 
	C713.674194,635.561096 711.744934,633.130676 709.917725,631.808899 
	C709.668091,631.628296 709.599243,631.213623 709.366150,630.992126 
	C701.338135,623.365784 693.616272,615.235474 683.424988,610.497070 
	C679.255737,608.558655 674.420593,607.831055 669.800171,607.225586 
	C668.495422,607.054626 666.006958,608.994019 665.563843,610.429321 
	C664.047302,615.341248 661.339111,615.156677 657.384155,613.028015 
	C657.031677,612.986206 656.998657,612.986267 656.979004,612.684082 
	C656.652710,611.918579 656.346130,611.455261 656.039551,610.992004 
	C648.365051,594.261414 640.690552,577.530884 632.989990,560.435913 
	C637.168335,560.129761 638.521912,557.552795 639.071167,553.864380 
	C639.555542,550.611450 641.864319,550.177795 644.163086,551.875916 
	C647.772339,554.542053 651.238953,555.594849 655.549805,553.445312 
	C656.755310,552.844177 658.828064,553.375122 660.269958,553.960571 
	C666.392090,556.446594 671.456726,560.093018 675.518372,565.638245 
	C679.653015,571.283081 684.726318,576.346741 689.989014,580.983459 
	C691.295227,582.134216 694.920288,580.652893 697.794067,580.168579 
	C702.476807,589.605042 706.781067,599.284119 711.234985,608.893738 
	C714.398193,615.718567 717.763489,622.449646 721.060425,629.593811 
z"/>
<path fill="#0B192D" opacity="1.000000" stroke="none" 
	d="
M478.070007,809.009949 
	C477.672363,821.207275 470.180359,829.652527 457.869080,830.960266 
	C451.443420,831.642761 444.910889,831.436096 438.426910,831.427246 
	C426.614838,831.411194 414.769623,831.759216 403.000092,830.998657 
	C390.360321,830.181824 382.332153,821.771851 382.055298,809.203125 
	C381.648743,790.746216 381.950562,772.273621 381.950562,753.456299 
	C386.963470,753.456299 391.828247,753.456299 397.159149,753.456299 
	C397.159149,769.604004 397.151428,785.542664 397.168976,801.481262 
	C397.171143,803.473694 397.121033,805.493835 397.415314,807.453125 
	C398.334595,813.573730 401.440369,817.026733 407.554138,817.130737 
	C422.855927,817.391113 438.172516,817.357849 453.470886,816.964844 
	C459.830292,816.801392 463.035431,812.557190 463.099426,805.312256 
	C463.222992,791.331848 463.102631,777.349426 463.113434,763.367798 
	C463.115875,760.213501 463.241516,757.059265 463.812866,754.069885 
	C467.060822,754.490662 469.823669,755.068481 472.547668,754.922424 
	C476.087799,754.732544 477.101959,756.042786 477.064758,759.500977 
	C476.905487,774.292847 476.961700,789.087585 477.043579,803.880737 
	C477.053101,805.592285 477.712128,807.300293 478.070007,809.009949 
z"/>
<path fill="#0798FD" opacity="1.000000" stroke="none" 
	d="
M603.979614,375.635193 
	C599.558716,376.718445 601.548889,380.280945 600.958557,382.745575 
	C600.618103,384.167419 599.872131,385.492126 599.308716,386.860596 
	C598.179749,385.844849 596.966187,384.907684 595.936951,383.799408 
	C592.083069,379.649841 588.594910,375.103516 584.398743,371.343018 
	C578.717163,366.251343 572.457214,361.809875 566.572021,356.936646 
	C565.375305,355.945740 564.992004,353.969482 563.792358,352.985657 
	C561.510803,351.114594 559.080627,349.235168 556.400391,348.087006 
	C552.915649,346.594086 548.297607,347.143982 547.505188,341.679962 
	C547.401978,340.967957 544.499451,339.832947 543.384399,340.239716 
	C538.509583,342.018066 536.115845,340.561218 535.623230,335.467682 
	C535.550781,334.718658 534.841675,334.031219 534.114990,333.105164 
	C541.992920,315.068726 550.183044,297.242432 559.013794,278.021637 
	C574.361267,311.233521 589.156677,343.250671 603.979614,375.635193 
z"/>
<path fill="#055CFD" opacity="1.000000" stroke="none" 
	d="
M481.543518,566.945068 
	C481.439697,564.365173 481.649414,561.633911 481.746796,560.365662 
	C477.208954,556.872742 473.016571,554.388611 469.789612,550.988281 
	C464.896606,545.832520 461.334351,545.206116 455.128387,547.973816 
	C452.022125,549.359192 447.494598,549.901917 444.554565,548.634521 
	C441.799408,547.446716 440.290283,543.368591 438.091370,540.232117 
	C445.018188,524.357300 452.082123,508.810822 459.158997,493.270172 
	C460.327362,490.704376 461.552490,488.164368 463.225281,485.649231 
	C463.919556,489.677002 464.139893,493.668030 464.412109,498.598297 
	C466.526154,496.765320 467.689911,495.607269 468.999908,494.649170 
	C472.501678,492.088165 473.811584,492.684326 475.100098,496.856323 
	C475.465057,498.037903 476.568359,499.336884 477.677612,499.886017 
	C483.995850,503.014008 490.506134,505.763702 496.748169,509.029846 
	C498.462128,509.926697 499.376160,512.257324 500.848419,513.740173 
	C502.072632,514.973145 503.577423,515.927612 504.957886,517.005432 
	C502.144409,523.341980 499.369476,529.696045 496.507935,536.010803 
	C492.752838,544.297485 488.958252,552.566711 485.115265,560.812866 
	C484.158142,562.866638 482.949829,564.803284 481.543518,566.945068 
z"/>
<path fill="#0B192D" opacity="1.000000" stroke="none" 
	d="
M228.306107,809.214661 
	C239.052429,791.375061 249.520737,773.792053 260.278442,756.387939 
	C261.303009,754.730347 264.028015,753.664551 266.150116,753.225586 
	C274.437592,751.511230 279.212402,754.754883 283.528961,762.579468 
	C296.231415,785.604919 310.204926,807.929199 324.204010,831.405334 
	C318.468414,831.405334 313.379700,831.649780 308.344513,831.238770 
	C307.035461,831.131897 305.571594,829.168579 304.723724,827.735535 
	C293.868195,809.389404 283.112457,790.984314 272.328735,772.595703 
	C271.513031,771.204712 270.676575,769.825989 269.643951,768.096863 
	C257.682983,788.357117 245.947311,808.080505 234.428848,827.929932 
	C232.873596,830.610046 231.313248,831.731873 228.229950,831.521545 
	C224.124771,831.241638 219.986115,831.452515 215.028732,831.452515 
	C219.679443,823.654114 223.893768,816.587402 228.306107,809.214661 
z"/>
<path fill="#057FFE" opacity="1.000000" stroke="none" 
	d="
M510.963318,382.292236 
	C517.259949,386.489502 517.190186,386.369507 524.885254,381.894287 
	C526.368408,381.031738 528.980347,380.798126 530.480286,381.513794 
	C535.735962,384.021118 540.990051,386.701660 545.752625,390.022339 
	C550.091431,393.047546 553.790222,396.990631 557.926392,400.845581 
	C551.864319,414.943054 545.647034,428.724121 538.880127,442.581543 
	C536.520874,440.574463 534.938599,438.221375 532.854553,436.463196 
	C528.407043,432.711243 524.088745,428.496185 518.985596,425.921356 
	C514.175842,423.494598 509.843231,418.716461 503.216522,420.875671 
	C500.158661,421.872040 497.707520,420.532074 497.899475,416.508484 
	C497.937286,415.715607 496.794250,414.866394 496.195831,414.043182 
	C501.037537,403.541931 505.879242,393.040649 510.963318,382.292236 
z"/>
<path fill="#0572FD" opacity="1.000000" stroke="none" 
	d="
M495.953796,414.298615 
	C496.794250,414.866394 497.937286,415.715607 497.899475,416.508484 
	C497.707520,420.532074 500.158661,421.872040 503.216522,420.875671 
	C509.843231,418.716461 514.175842,423.494598 518.985596,425.921356 
	C524.088745,428.496185 528.407043,432.711243 532.854553,436.463196 
	C534.938599,438.221375 536.520874,440.574463 538.626770,442.813965 
	C533.190491,455.601013 527.457947,468.231995 521.253784,480.788300 
	C517.539185,477.856293 514.440002,474.810303 511.010284,472.198151 
	C507.970642,469.883026 504.656158,467.878967 501.288452,466.060852 
	C498.775452,464.704193 495.993347,463.839294 493.314117,462.799194 
	C490.832336,461.835724 488.373108,460.345490 485.822113,460.148834 
	C482.711334,459.909058 481.305237,458.776276 480.965607,455.812195 
	C480.701904,453.510834 480.245514,451.231567 479.874725,448.942474 
	C485.153748,437.479675 490.432770,426.016876 495.953796,414.298615 
z"/>
<path fill="#0653FD" opacity="1.000000" stroke="none" 
	d="
M550.988647,561.895264 
	C564.895569,558.021179 577.255249,563.700989 582.667542,576.169556 
	C587.634888,587.613098 583.252197,601.543030 572.632385,608.064758 
	C561.738953,614.754700 547.718262,612.571472 539.658020,602.930176 
	C531.201172,592.814392 531.264587,578.329468 540.349915,568.780518 
	C543.102722,565.887207 547.153381,564.228638 550.988647,561.895264 
z"/>
<path fill="#0466FD" opacity="1.000000" stroke="none" 
	d="
M479.561462,449.103271 
	C480.245514,451.231567 480.701904,453.510834 480.965607,455.812195 
	C481.305237,458.776276 482.711334,459.909058 485.822113,460.148834 
	C488.373108,460.345490 490.832336,461.835724 493.314117,462.799194 
	C495.993347,463.839294 498.775452,464.704193 501.288452,466.060852 
	C504.656158,467.878967 507.970642,469.883026 511.010284,472.198151 
	C514.440002,474.810303 517.539185,477.856293 520.989197,481.020630 
	C517.389160,489.573456 513.548706,497.804169 509.790863,506.072357 
	C508.237701,509.489655 506.861572,512.987427 505.181396,516.727051 
	C503.577423,515.927612 502.072632,514.973145 500.848419,513.740173 
	C499.376160,512.257324 498.462128,509.926697 496.748169,509.029846 
	C490.506134,505.763702 483.995850,503.014008 477.677612,499.886017 
	C476.568359,499.336884 475.465057,498.037903 475.100098,496.856323 
	C473.811584,492.684326 472.501678,492.088165 468.999908,494.649170 
	C467.689911,495.607269 466.526154,496.765320 464.412109,498.598297 
	C464.139893,493.668030 463.919556,489.677002 463.444855,485.371582 
	C468.543060,473.126099 473.895630,461.195068 479.561462,449.103271 
z"/>
<path fill="#0A182B" opacity="1.000000" stroke="none" 
	d="
M719.990356,799.000000 
	C719.989929,809.963196 719.989929,820.426331 719.989929,831.161255 
	C714.819580,831.161255 710.053528,831.161255 704.943359,831.161255 
	C704.943359,805.256531 704.943359,779.396057 704.943359,753.418213 
	C709.941772,753.418213 714.692810,753.418213 719.990784,753.418213 
	C719.990784,768.628601 719.990784,783.564331 719.990356,799.000000 
z"/>
<path fill="#145CF8" opacity="1.000000" stroke="none" 
	d="
M661.209717,881.207214 
	C661.210144,878.926025 661.210144,877.115967 661.210144,875.164734 
	C669.364563,875.164734 677.212158,874.544678 684.874451,875.465881 
	C687.996765,875.841248 691.804138,878.979919 693.362671,881.896484 
	C695.641907,886.161743 693.877380,890.632141 689.365295,893.792419 
	C690.873413,894.979370 692.828125,895.732849 693.232300,896.986389 
	C694.344421,900.434937 695.803955,904.243835 695.291687,907.632935 
	C694.526855,912.692810 689.920715,914.808472 685.223816,915.036133 
	C677.449402,915.412903 669.643372,915.138550 661.209229,915.138550 
	C661.209229,903.821960 661.209229,892.750122 661.209717,881.207214 
M672.650330,909.814392 
	C676.295166,909.740967 680.122192,910.320496 683.522949,909.371826 
	C685.915894,908.704285 688.866821,906.300049 689.538574,904.061829 
	C690.590454,900.557373 687.708496,897.940613 684.253479,897.659546 
	C678.918213,897.225586 673.521729,897.545227 667.902161,897.545227 
	C667.902161,900.812317 668.114502,903.641724 667.846252,906.424805 
	C667.538208,909.621155 669.221375,910.054626 672.650330,909.814392 
M667.912903,881.760193 
	C667.912903,885.015259 667.912903,888.270325 667.912903,891.704590 
	C673.078430,891.704590 677.657715,892.283569 681.965942,891.454407 
	C684.043457,891.054565 686.535217,888.280212 687.191406,886.087830 
	C688.166992,882.828674 685.387634,880.613037 682.367615,880.434937 
	C677.647034,880.156555 672.879944,880.668213 667.912903,881.760193 
z"/>
<path fill="#145CF8" opacity="1.000000" stroke="none" 
	d="
M574.468933,881.274414 
	C575.289001,879.596680 575.641846,877.945068 576.651489,876.981934 
	C577.774353,875.910889 579.479797,874.951538 580.961121,874.906250 
	C582.252197,874.866760 584.290405,875.840515 584.790344,876.923950 
	C590.541687,889.388245 596.062378,901.958984 601.662964,914.543152 
	C596.759155,916.683899 594.168396,914.772766 593.058044,910.357178 
	C592.138184,906.698914 589.993286,905.338318 586.254333,905.595581 
	C582.619019,905.845703 578.908325,905.915894 575.304443,905.469910 
	C571.159058,904.957031 569.002869,906.723511 568.185669,910.450745 
	C567.097595,915.413513 564.013306,916.125732 559.257629,914.673645 
	C564.309692,903.560791 569.300537,892.582458 574.468933,881.274414 
M580.507812,900.132812 
	C582.908752,900.132812 585.309692,900.132812 588.428833,900.132812 
	C585.750549,893.822388 583.427856,888.349915 580.683899,881.884766 
	C577.770813,888.627991 575.394531,894.128540 572.802185,900.129333 
	C575.620178,900.129333 577.603943,900.129333 580.507812,900.132812 
z"/>
<path fill="#145CF8" opacity="1.000000" stroke="none" 
	d="
M765.011230,915.110962 
	C761.520508,913.619751 758.436707,912.208191 754.931274,910.603577 
	C756.401978,908.360535 757.363037,906.894775 758.324097,905.429077 
	C758.342773,905.920105 758.361450,906.411133 758.380066,906.902222 
	C763.749268,907.834473 769.090576,909.161133 774.498657,909.542847 
	C777.477844,909.753235 781.076172,908.001526 780.494995,904.413391 
	C780.157593,902.330200 777.342285,900.084717 775.112793,899.005493 
	C771.873108,897.437256 768.103394,897.007324 764.654724,895.816711 
	C760.117004,894.250183 756.744202,891.541138 756.749512,886.165955 
	C756.754883,880.812500 759.571960,877.392456 764.403564,875.669006 
	C771.942078,872.980042 779.036438,874.227661 786.178894,878.505127 
	C785.169250,880.330505 784.325500,881.856018 783.714111,882.961365 
	C779.289307,881.922791 775.354248,880.610901 771.324158,880.173096 
	C767.949646,879.806458 764.265442,880.661560 763.615173,884.798950 
	C762.905945,889.312561 766.761414,890.015015 769.939087,890.996277 
	C773.730408,892.166870 777.774536,892.807617 781.286316,894.536682 
	C789.404297,898.533813 789.546326,908.533447 781.845947,913.348938 
	C776.643433,916.602356 771.070801,916.159058 765.011230,915.110962 
z"/>
<path fill="#3365F9" opacity="1.000000" stroke="none" 
	d="
M866.999634,896.146729 
	C860.506958,896.150879 854.512817,896.227905 848.522766,896.104004 
	C847.248718,896.077698 845.989746,895.319641 844.723755,894.898682 
	C845.987793,894.303589 847.251953,893.189392 848.515991,893.189453 
	C877.480408,893.191650 906.445251,893.251770 935.409058,893.442993 
	C950.047729,893.539612 964.691162,893.724915 979.319763,894.234558 
	C988.175171,894.543091 997.004700,895.571655 1005.850464,896.213074 
	C1006.915405,896.290344 1008.009399,895.968628 1009.042236,896.148010 
	C961.861389,896.148010 914.680481,896.148010 866.999634,896.146729 
z"/>
<path fill="#3365F9" opacity="1.000000" stroke="none" 
	d="
M406.934814,893.120911 
	C410.476166,893.121887 413.530121,893.121887 416.584045,893.121887 
	C416.679901,893.767761 416.775757,894.413635 416.871613,895.059509 
	C415.438873,895.424194 414.004669,896.112793 412.573547,896.106445 
	C374.248047,895.936584 335.922974,895.673767 297.597565,895.477600 
	C283.712830,895.406555 269.827393,895.466187 255.942276,895.466187 
	C255.940277,895.051331 255.938293,894.636536 255.936295,894.221680 
	C306.106659,893.854431 356.277008,893.487183 406.934814,893.120911 
z"/>
<path fill="#0653FD" opacity="1.000000" stroke="none" 
	d="
M482.220947,885.024414 
	C482.218781,893.305603 482.218781,901.091858 482.218781,909.431152 
	C489.636749,909.431152 496.542938,909.431152 503.848907,909.431152 
	C503.983490,911.516541 504.083801,913.070618 504.204254,914.937012 
	C494.801331,914.937012 485.722565,914.937012 476.228088,914.937012 
	C476.228088,901.774536 476.228088,888.603088 476.228088,875.149658 
	C478.103241,875.149658 479.840515,875.149658 482.223114,875.149658 
	C482.223114,878.321045 482.223114,881.425293 482.220947,885.024414 
z"/>
<path fill="#0C1A2E" opacity="1.000000" stroke="none" 
	d="
M868.767456,754.626160 
	C866.657837,754.907227 864.263306,754.989990 861.868713,754.991455 
	C844.239258,755.002441 826.609863,755.002869 808.980408,754.978455 
	C808.173828,754.977356 807.367615,754.706299 806.271118,754.256836 
	C806.127869,753.875488 806.275574,753.729187 806.421631,753.730713 
	C827.108643,753.943542 847.795532,754.167114 868.767456,754.626160 
z"/>
<path fill="#07172B" opacity="1.000000" stroke="none" 
	d="
M478.202515,808.556763 
	C477.712128,807.300293 477.053101,805.592285 477.043579,803.880737 
	C476.961700,789.087585 476.905487,774.292847 477.064758,759.500977 
	C477.101959,756.042786 476.087799,754.732544 472.547668,754.922424 
	C469.823669,755.068481 467.060822,754.490662 464.159912,753.892700 
	C468.593231,753.550598 473.181915,753.550598 478.335052,753.550598 
	C478.335052,771.716309 478.335052,789.909973 478.202515,808.556763 
z"/>
<path fill="#057FFE" opacity="1.000000" stroke="none" 
	d="
M565.664062,413.675140 
	C568.273376,414.663666 571.648071,415.455200 573.291626,417.583527 
	C574.204895,418.766113 572.230469,422.178741 571.273987,424.795319 
	C569.229065,421.348419 567.467651,417.692535 565.664062,413.675140 
z"/>
<path fill="#055CFD" opacity="1.000000" stroke="none" 
	d="
M476.018616,579.661560 
	C472.847260,576.932739 475.609833,575.631348 478.077576,574.139465 
	C477.672302,575.872375 476.896271,577.593262 476.018616,579.661560 
z"/>
<path fill="#057FFE" opacity="1.000000" stroke="none" 
	d="
M563.176514,408.332977 
	C563.746765,408.906464 564.336731,409.809448 564.900452,411.097412 
	C564.314880,410.542389 563.755615,409.602417 563.176514,408.332977 
z"/>
<path fill="#0C1A2E" opacity="1.000000" stroke="none" 
	d="
M871.813599,755.754639 
	C871.367371,755.868408 870.720398,755.777100 870.036499,755.399780 
	C870.537292,755.259155 871.075073,755.404358 871.813599,755.754639 
z"/>
<path fill="#0C1A2E" opacity="1.000000" stroke="none" 
	d="
M800.708496,755.017822 
	C800.415955,755.481567 799.831665,755.909485 799.090698,756.089661 
	C799.428345,755.555298 799.922607,755.268677 800.708496,755.017822 
z"/>
<path fill="#055CFD" opacity="1.000000" stroke="none" 
	d="
M656.046631,611.284180 
	C656.346130,611.455261 656.652710,611.918579 656.989441,612.671509 
	C656.697632,612.499573 656.375610,612.037964 656.046631,611.284180 
z"/>
<path fill="#057FFE" opacity="1.000000" stroke="none" 
	d="
M564.998108,412.279236 
	C565.246948,412.252625 565.492554,412.508118 565.747559,413.039398 
	C565.502869,413.063904 565.248901,412.812592 564.998108,412.279236 
z"/>
<path fill="#0C1A2E" opacity="1.000000" stroke="none" 
	d="
M802.594116,754.515137 
	C802.626892,754.762573 802.410339,754.979553 802.086487,755.013000 
	C802.101074,754.714600 802.222900,754.599609 802.594116,754.515137 
z"/>
<path fill="#0572FD" opacity="1.000000" stroke="none" 
	d="
M665.192383,508.653748 
	C665.006531,508.679474 664.804810,508.466431 664.752014,508.138580 
	C664.900940,508.023773 665.176575,508.414978 665.192383,508.653748 
z"/>
<path fill="#F8F8F9" opacity="1.000000" stroke="none" 
	d="
M560.116821,793.611389 
	C560.116821,785.177734 560.116821,776.744141 560.116821,767.889404 
	C561.072205,767.768677 562.312683,767.481750 563.554688,767.474731 
	C580.163757,767.380432 596.773010,767.282104 613.382263,767.280273 
	C620.621704,767.279480 624.443787,769.626526 624.932251,774.924500 
	C625.783752,784.161255 626.414307,790.810852 616.861206,793.149902 
	C597.413513,793.392212 578.765198,793.501770 560.116821,793.611389 
z"/>
<path fill="#07172B" opacity="1.000000" stroke="none" 
	d="
M560.315430,793.986450 
	C578.765198,793.501770 597.413513,793.392212 616.529419,793.313965 
	C615.945068,793.897461 614.895752,794.925171 613.840942,794.930908 
	C596.681091,795.024048 579.520447,794.994141 562.360107,794.954590 
	C561.744263,794.953186 561.129333,794.567871 560.315430,793.986450 
z"/>
<path fill="#FBFBFB" opacity="1.000000" stroke="none" 
	d="
M803.285645,771.414978 
	C807.221802,769.875366 810.871643,767.698242 814.588684,767.576721 
	C828.390442,767.125366 842.214966,767.255188 856.029602,767.353394 
	C866.421448,767.427246 869.782532,770.821350 869.964233,781.175720 
	C870.098633,788.830444 870.131104,796.490540 870.013123,804.145264 
	C869.874878,813.111877 866.231628,817.065613 857.285095,817.237854 
	C842.810059,817.516541 828.322754,817.599854 813.848572,817.333679 
	C804.290466,817.157837 800.748413,813.151489 800.663757,803.666931 
	C800.598389,796.343567 800.365112,789.007812 800.706360,781.700928 
	C800.863037,778.345459 802.218445,775.045898 803.285645,771.414978 
z"/>
<path fill="#EDF3FD" opacity="1.000000" stroke="none" 
	d="
M672.179077,909.811890 
	C669.221375,910.054626 667.538208,909.621155 667.846252,906.424805 
	C668.114502,903.641724 667.902161,900.812317 667.902161,897.545227 
	C673.521729,897.545227 678.918213,897.225586 684.253479,897.659546 
	C687.708496,897.940613 690.590454,900.557373 689.538574,904.061829 
	C688.866821,906.300049 685.915894,908.704285 683.522949,909.371826 
	C680.122192,910.320496 676.295166,909.740967 672.179077,909.811890 
z"/>
<path fill="#EDF3FD" opacity="1.000000" stroke="none" 
	d="
M668.022705,881.302673 
	C672.879944,880.668213 677.647034,880.156555 682.367615,880.434937 
	C685.387634,880.613037 688.166992,882.828674 687.191406,886.087830 
	C686.535217,888.280212 684.043457,891.054565 681.965942,891.454407 
	C677.657715,892.283569 673.078430,891.704590 667.912903,891.704590 
	C667.912903,888.270325 667.912903,885.015259 668.022705,881.302673 
z"/>
<path fill="#EDF3FD" opacity="1.000000" stroke="none" 
	d="
M580.047729,900.131104 
	C577.603943,900.129333 575.620178,900.129333 572.802185,900.129333 
	C575.394531,894.128540 577.770813,888.627991 580.683899,881.884766 
	C583.427856,888.349915 585.750549,893.822388 588.428833,900.132812 
	C585.309692,900.132812 582.908752,900.132812 580.047729,900.131104 
z"/>
</svg>